<svg width="150" height="168" viewBox="0 0 150 168" fill="none" xmlns="http://www.w3.org/2000/svg">
<g clip-path="url(#clip0_9701_65978)">
<path d="M85.036 129.447C120.915 129.447 150 100.469 150 64.7234C150 28.9777 120.915 0 85.036 0C49.1573 0 20.072 28.9777 20.072 64.7234C20.072 100.469 49.1573 129.447 85.036 129.447Z" fill="#F2F2F2"/>
<path d="M127.489 28.9442H8.48385C8.22866 28.9388 8.0262 28.7282 8.03166 28.474C8.03695 28.2274 8.23634 28.0288 8.48385 28.0235H127.489C127.744 28.0289 127.947 28.2394 127.941 28.4937C127.936 28.7403 127.736 28.9389 127.489 28.9442Z" fill="#CACACA"/>
<path d="M86.9323 44.4585H54.0346C51.5636 44.4585 49.5605 46.4542 49.5605 48.916V48.9161C49.5605 51.3779 51.5636 53.3736 54.0346 53.3736H86.9323C89.4032 53.3736 91.4064 51.3779 91.4064 48.916C91.4064 46.4542 89.4032 44.4585 86.9323 44.4585Z" fill="white"/>
<path d="M32.7825 62.2887H108.184C110.655 62.2887 112.658 64.2844 112.658 66.7463C112.658 69.2081 110.655 71.2038 108.184 71.2038H32.7825C30.3115 71.2038 28.3084 69.2081 28.3084 66.7463C28.3084 64.2844 30.3115 62.2887 32.7825 62.2887Z" fill="white"/>
<path d="M32.7825 80.1189H108.184C110.655 80.1189 112.658 82.1147 112.658 84.5765C112.658 87.0383 110.655 89.0341 108.184 89.0341H32.7825C30.3115 89.0341 28.3084 87.0383 28.3084 84.5765C28.3084 82.1147 30.3115 80.1189 32.7825 80.1189Z" fill="white"/>
<path d="M23.4384 167.608L23.261 167.591C17.2401 166.972 11.7973 163.746 8.37845 158.769C7.442 157.383 6.68453 155.884 6.12389 154.309L6.07001 154.159L6.22954 154.146C8.13421 153.993 10.0909 153.671 10.9601 153.518L5.35511 151.626L5.32046 151.46C4.98815 149.905 5.63917 148.304 6.96463 147.418C8.29369 146.49 10.0561 146.46 11.416 147.343C12.0262 147.732 12.6645 148.116 13.2817 148.488C15.4028 149.767 17.5962 151.088 19.2406 152.897C21.7342 155.694 22.8272 159.464 22.2151 163.155L23.4384 167.608Z" fill="#F2F2F2"/>
<path d="M43.8124 164.831L46.5746 164.831L47.889 154.214L43.8116 154.215L43.8124 164.831Z" fill="#A0616A"/>
<path d="M43.715 167.702L52.21 167.702V167.595C52.2099 165.775 50.7295 164.301 48.9035 164.3H48.9033L47.3515 163.128L44.4564 164.301L43.7148 164.301L43.715 167.702Z" fill="#2F2E41"/>
<path d="M21.6737 157.208L23.8832 158.859L31.3293 151.153L28.0678 148.716L21.6737 157.208Z" fill="#A0616A"/>
<path d="M19.8663 159.446L26.6617 164.525L26.7262 164.44C27.822 162.984 27.5262 160.92 26.0656 159.828L26.0654 159.827L25.5307 157.962L22.5082 157.169L21.9151 156.725L19.8663 159.446H19.8663Z" fill="#2F2E41"/>
<path d="M30.8565 115.012C30.8565 115.012 31.009 119.157 31.2014 122.48C31.2329 123.025 29.9511 123.617 29.9843 124.21C30.0064 124.604 30.2473 124.986 30.2697 125.396C30.2933 125.829 29.9607 126.213 29.9843 126.66C30.0075 127.098 30.387 127.599 30.4099 128.047C30.6562 132.866 31.5492 138.634 30.655 140.246C30.2143 141.041 24.5971 152.051 24.5971 152.051C24.5971 152.051 27.7268 156.728 28.621 155.169C29.8021 153.11 38.9043 143.476 38.9043 141.636C38.9043 139.799 41.0101 126.028 41.0101 126.028L42.4785 134.177L43.1518 135.792L42.9402 136.74L43.3753 138.019L43.3988 139.285L43.8224 141.636C43.8224 141.636 42.5482 159.953 43.2658 160.463C43.9856 160.975 47.4707 161.895 47.8821 160.975C48.2912 160.055 50.954 141.859 50.954 141.859C50.954 141.859 51.3832 133.52 51.8482 125.769C51.875 125.32 52.1925 124.776 52.2171 124.333C52.2461 123.818 52.0449 123.15 52.0717 122.651C52.1008 122.079 52.3556 121.676 52.3802 121.128C52.5702 116.894 51.5036 111.738 51.1638 111.23C50.1377 109.698 49.2144 108.473 49.2144 108.473C49.2144 108.473 35.3941 103.949 31.701 108.546L30.8565 115.012L30.8565 115.012Z" fill="#2F2E41"/>
<path d="M44.6404 72.3944L39.1618 71.3027L36.605 74.7597C31.8344 79.4331 31.7625 83.5578 32.6142 90.1694V99.4487L31.9978 105.669C31.9978 105.669 29.8157 110.216 32.0663 111.275C34.3169 112.334 49.0998 112.244 50.5112 111.821C51.9226 111.398 50.6992 110.88 50.3286 108.91C49.6324 105.21 50.0981 106.995 50.146 105.817C50.8329 88.919 49.2329 81.9818 49.0704 80.1584L46.2841 75.1235L44.6404 72.3944Z" fill="#3F3D56"/>
<path d="M73.5165 86.0187C72.9455 87.0966 71.6056 87.5092 70.5237 86.9403C70.4083 86.8797 70.2986 86.809 70.1957 86.7291L58.364 94.2138L58.3981 90.1387L69.8917 83.4935C70.7104 82.579 72.1182 82.4989 73.0361 83.3145C73.8041 83.997 74.0028 85.115 73.5165 86.0187Z" fill="#A0616A"/>
<path d="M40.3147 77.1137L38.9677 76.9715C37.7231 76.8429 36.5019 77.3739 35.7503 78.3707C35.4625 78.7487 35.2557 79.1816 35.1429 79.6426L35.1421 79.6463C34.8042 81.0339 35.3342 82.488 36.4869 83.3364L41.1394 86.7537C44.4043 91.149 50.5403 94.0651 57.738 96.4341L68.9258 89.5116L64.9687 84.7367L57.2949 88.8341L45.8883 80.0369L45.8817 80.0316L41.5403 77.245L40.3147 77.1137L40.3147 77.1137Z" fill="#3F3D56"/>
<path d="M42.7893 69.714C46.3178 69.714 49.1782 66.8642 49.1782 63.3487C49.1782 59.8333 46.3178 56.9835 42.7893 56.9835C39.2608 56.9835 36.4003 59.8333 36.4003 63.3487C36.4003 66.8642 39.2608 69.714 42.7893 69.714Z" fill="#A0616A"/>
<path d="M42.9368 69.7154C42.8853 69.7171 42.8337 69.7182 42.7822 69.7196C42.7601 69.7766 42.7363 69.8332 42.7088 69.8887L42.9368 69.7154V69.7154Z" fill="#2F2E41"/>
<path d="M44.6902 63.5253C44.7003 63.588 44.7156 63.6498 44.7361 63.7099C44.7276 63.6469 44.7123 63.585 44.6902 63.5253Z" fill="#2F2E41"/>
<path d="M49.2597 57.2558C48.9968 58.0694 48.7621 57.0374 47.897 57.223C46.8563 57.4463 45.6453 57.3696 44.7931 56.7341C43.5232 55.8058 41.8777 55.556 40.388 56.0652C38.9297 56.5791 36.4867 56.9416 36.1067 58.4354C35.9746 58.9547 35.9222 59.5182 35.602 59.9486C35.3221 60.3248 34.8803 60.5394 34.5109 60.8289C33.2635 61.8068 34.2169 64.5849 34.8073 66.0528C35.3977 67.5207 36.752 68.5901 38.241 69.1378C39.6817 69.6678 41.2453 69.7612 42.7822 69.7196C43.0495 69.0289 42.934 68.2311 42.7134 67.5151C42.4746 66.7399 42.1211 65.9918 42.0213 65.1871C41.9216 64.3824 42.1406 63.4683 42.8179 63.0186C43.4404 62.6053 44.4534 62.8571 44.6903 63.5253C44.5521 62.6899 45.4015 61.8815 46.2773 61.7394C47.2176 61.5867 48.1579 61.925 49.0955 62.0933C50.0331 62.2617 49.7003 58.3289 49.2597 57.2558Z" fill="#2F2E41"/>
<path d="M84.9914 73.8782C85.587 66.7085 80.2361 60.4153 73.0397 59.8219C65.8434 59.2285 59.5268 64.5597 58.9312 71.7294C58.3356 78.899 63.6866 85.1922 70.8829 85.7856C78.0793 86.379 84.3959 81.0479 84.9914 73.8782Z" fill="#FB3C3E"/>
<path d="M75.3958 67.3762L71.9613 70.7979L68.5268 67.3762C67.9709 66.8223 67.0695 66.8223 66.5135 67.3762C65.9576 67.9301 65.9576 68.8281 66.5135 69.382L69.948 72.8038L66.5135 76.2255C65.9581 76.78 65.9589 77.678 66.5154 78.2314C67.0712 78.784 67.9711 78.784 68.5268 78.2314L71.9613 74.8096L75.3958 78.2314C75.9523 78.7848 76.8536 78.7839 77.4091 78.2295C77.9638 77.6758 77.9638 76.7792 77.4091 76.2255L73.9746 72.8038L77.4091 69.382C77.965 68.8281 77.965 67.9301 77.4091 67.3762C76.8531 66.8223 75.9517 66.8223 75.3958 67.3762Z" fill="white"/>
<path d="M66.8091 61.8552C67.1945 63.0119 66.5657 64.2609 65.4047 64.6449C65.2809 64.6858 65.1537 64.7158 65.0246 64.7344L62.2546 78.4224L59.3266 75.5766L62.4706 62.713C62.3751 61.4913 63.2917 60.4237 64.5179 60.3285C65.544 60.2488 66.4912 60.88 66.8091 61.8552Z" fill="#A0616A"/>
<path d="M37.3736 79.56L36.338 80.43C35.3832 81.2358 34.9224 82.4814 35.124 83.7118C35.1985 84.1804 35.369 84.6288 35.6248 85.029L35.6269 85.0322C36.398 86.2357 37.8181 86.8614 39.2305 86.62L44.9266 85.641C50.3704 86.3367 56.7305 83.944 63.4293 80.4095L66.1608 67.5737L59.9629 67.113L57.618 75.4666L43.3494 77.5768L43.341 77.5779L38.3171 78.7698L37.3736 79.56L37.3736 79.56Z" fill="#3F3D56"/>
<path d="M69.8074 167.922L0.30355 168C0.135362 167.999 -0.000543145 167.863 1.6321e-06 167.696C0.000541294 167.529 0.136127 167.394 0.30355 167.393L69.8074 167.315C69.9756 167.315 70.1115 167.452 70.1109 167.619C70.1104 167.786 69.9748 167.921 69.8074 167.922Z" fill="#CACACA"/>
<path d="M14.5215 23.1127C15.716 23.1127 16.6844 22.1264 16.6844 20.9098C16.6844 19.6932 15.716 18.7069 14.5215 18.7069C13.3269 18.7069 12.3586 19.6932 12.3586 20.9098C12.3586 22.1264 13.3269 23.1127 14.5215 23.1127Z" fill="#3F3D56"/>
<path d="M21.9933 23.1127C23.1878 23.1127 24.1562 22.1264 24.1562 20.9098C24.1562 19.6932 23.1878 18.7069 21.9933 18.7069C20.7988 18.7069 19.8304 19.6932 19.8304 20.9098C19.8304 22.1264 20.7988 23.1127 21.9933 23.1127Z" fill="#3F3D56"/>
<path d="M29.4651 23.1127C30.6596 23.1127 31.628 22.1264 31.628 20.9098C31.628 19.6932 30.6596 18.7069 29.4651 18.7069C28.2706 18.7069 27.3022 19.6932 27.3022 20.9098C27.3022 22.1264 28.2706 23.1127 29.4651 23.1127Z" fill="#3F3D56"/>
<path d="M37.985 22.6509C37.9185 22.6509 37.8522 22.6253 37.8021 22.5743L36.3427 21.0879C36.2455 20.9889 36.2455 20.8306 36.3427 20.7316L37.8021 19.2454C37.9012 19.1448 38.0633 19.1432 38.1638 19.2414C38.2648 19.3398 38.2666 19.5012 38.1678 19.6017L36.8834 20.9098L38.1678 22.2179C38.2666 22.3185 38.2648 22.4799 38.1638 22.5783C38.1141 22.6268 38.0495 22.6509 37.985 22.6509Z" fill="#3F3D56"/>
<path d="M40.4373 22.6509C40.3728 22.6509 40.3082 22.6268 40.2585 22.5783C40.1575 22.4799 40.1557 22.3186 40.2545 22.2179L41.5388 20.9098L40.2545 19.6017C40.1557 19.5012 40.1575 19.3398 40.2585 19.2414C40.3593 19.1429 40.5214 19.1447 40.6202 19.2454L42.0794 20.7316C42.1767 20.8306 42.1767 20.9889 42.0794 21.0879L40.6202 22.5743C40.5701 22.6253 40.5038 22.6509 40.4373 22.6509Z" fill="#3F3D56"/>
<path d="M116.785 18.9619H114.072C113.762 18.9619 113.512 19.2117 113.512 19.52V22.2261C113.512 22.5345 113.762 22.7842 114.072 22.7842H116.785C117.095 22.7842 117.348 22.5345 117.348 22.2261V19.52C117.348 19.2117 117.095 18.9619 116.785 18.9619Z" fill="#3F3D56"/>
<path d="M110.135 18.9619H107.422C107.112 18.9619 106.862 19.2117 106.862 19.52V22.2261C106.862 22.5345 107.112 22.7842 107.422 22.7842H110.135C110.445 22.7842 110.698 22.5345 110.698 22.2261V19.52C110.698 19.2117 110.445 18.9619 110.135 18.9619Z" fill="#3F3D56"/>
<path d="M123.052 19.0894H120.338C120.028 19.0894 119.778 19.3391 119.778 19.6474V22.3536C119.778 22.6619 120.028 22.9116 120.338 22.9116H123.052C123.361 22.9116 123.614 22.6619 123.614 22.3536V19.6474C123.614 19.3391 123.361 19.0894 123.052 19.0894Z" fill="#3F3D56"/>
<path d="M82.1494 20.1188H60.458C60.0795 20.1188 59.7751 20.4246 59.7751 20.7992C59.7751 21.1738 60.0795 21.4795 60.458 21.4795H82.1494C82.5253 21.4795 82.8323 21.1737 82.8323 20.7992C82.8323 20.4246 82.5253 20.1188 82.1494 20.1188Z" fill="#3F3D56"/>
</g>
<defs>
<clipPath id="clip0_9701_65978">
<rect width="150" height="168" fill="white"/>
</clipPath>
</defs>
</svg>
