<svg width="275" height="168" viewBox="0 0 275 168" fill="none" xmlns="http://www.w3.org/2000/svg">
<g clip-path="url(#clip0_9701_66012)">
<path d="M136.79 168C212.337 168 273.581 165.497 273.581 162.408C273.581 159.32 212.337 156.817 136.79 156.817C61.2431 156.817 0 159.32 0 162.408C0 165.497 61.2431 168 136.79 168Z" fill="#E6E6E6"/>
<path d="M34.8135 92.3311C54.0404 92.3311 69.627 76.6148 69.627 57.2277C69.627 37.8406 54.0404 22.1243 34.8135 22.1243C15.5865 22.1243 0 37.8406 0 57.2277C0 76.6148 15.5865 92.3311 34.8135 92.3311Z" fill="#FB3C3E"/>
<path d="M38.1691 162.961H31.0385L34.2891 51.9409L38.1691 162.961Z" fill="#3F3D56"/>
<path d="M34.9182 72.9819L42.5732 62.303L34.8135 75.6252L33.9746 74.1449L34.9182 72.9819Z" fill="#3F3D56"/>
<path d="M34.0793 83.7667L26.4247 73.0878L34.1844 86.41L35.0233 84.9298L34.0793 83.7667Z" fill="#3F3D56"/>
<path d="M254.941 163.078H247.811L251.061 52.0577L254.941 163.078Z" fill="#3F3D56"/>
<path d="M251.69 73.0987L259.345 62.4198L251.586 75.742L250.747 74.2618L251.69 73.0987Z" fill="#3F3D56"/>
<path d="M250.851 83.8835L243.197 73.2046L250.957 86.5268L251.795 85.0466L250.851 83.8835Z" fill="#3F3D56"/>
<path d="M141.428 163.059C177.245 163.059 206.28 133.782 206.28 97.6662C206.28 61.5507 177.245 32.2733 141.428 32.2733C105.61 32.2733 76.5749 61.5507 76.5749 97.6662C76.5749 133.782 105.61 163.059 141.428 163.059Z" fill="#3F3D56"/>
<path d="M141.428 157.646C174.28 157.646 200.912 130.792 200.912 97.6662C200.912 64.5404 174.28 37.6866 141.428 37.6866C108.575 37.6866 81.9435 64.5404 81.9435 97.6662C81.9435 130.792 108.575 157.646 141.428 157.646Z" fill="white"/>
<path d="M141.213 105.894C145.601 105.894 149.158 102.307 149.158 97.8827C149.158 93.458 145.601 89.871 141.213 89.871C136.825 89.871 133.267 93.458 133.267 97.8827C133.267 102.307 136.825 105.894 141.213 105.894Z" fill="#3F3D56"/>
<path d="M142.931 40.7181H139.495V47.2141H142.931V40.7181Z" fill="#3F3D56"/>
<path d="M142.931 148.551H139.495V155.047H142.931V148.551Z" fill="#3F3D56"/>
<path d="M90.9628 99.615V96.1505H84.5204V99.615H90.9628Z" fill="#3F3D56"/>
<path d="M197.905 99.615V96.1505H191.463V99.615H197.905Z" fill="#3F3D56"/>
<path d="M138.922 101.361L141.859 94.5907L178.652 115.138L138.922 101.361Z" fill="#3F3D56"/>
<path d="M149.803 16.4664H133.053V35.9543H149.803V16.4664Z" fill="#3F3D56"/>
<path d="M141.428 21.8797C152.102 21.8797 160.755 19.4561 160.755 16.4664C160.755 13.4767 152.102 11.0531 141.428 11.0531C130.754 11.0531 122.101 13.4767 122.101 16.4664C122.101 19.4561 130.754 21.8797 141.428 21.8797Z" fill="#3F3D56"/>
<path d="M177.612 109.251L176.538 110.766C176.538 110.766 171.599 116.613 171.384 113.798C171.17 110.983 175.035 109.034 175.035 109.034L177.183 107.735L177.612 109.251Z" fill="#FFB8B8"/>
<path d="M208.18 114.365L209.079 115.992C209.079 115.992 212.206 122.995 209.591 121.986C206.976 120.977 206.883 116.62 206.883 116.62L206.638 114.107L208.18 114.365Z" fill="#FFB8B8"/>
<path d="M203.346 85.5115C206.957 85.5115 209.885 82.5596 209.885 78.9182C209.885 75.2768 206.957 72.3249 203.346 72.3249C199.734 72.3249 196.807 75.2768 196.807 78.9182C196.807 82.5596 199.734 85.5115 203.346 85.5115Z" fill="#2F2E41"/>
<path d="M202.737 133.069L203.596 138.699V140.431H208.535V138.266C208.535 138.266 208.75 134.369 207.891 133.286C207.032 132.203 202.737 133.069 202.737 133.069Z" fill="#FFB8B8"/>
<path d="M193.933 133.069L194.792 138.699V140.431H199.731V138.266C199.731 138.266 199.945 134.369 199.086 133.286C198.228 132.203 193.933 133.069 193.933 133.069Z" fill="#FFB8B8"/>
<path d="M197.256 87.847C197.256 87.847 195.357 88.8566 196.654 91.1532C197.952 93.4498 205.565 117.209 205.565 117.209L209.957 115.952L206.083 100.926L203.866 91.4817L197.256 87.847Z" fill="#FB3C3E"/>
<path d="M202.63 85.7569C205.358 85.7569 207.569 83.5272 207.569 80.7766C207.569 78.0261 205.358 75.7964 202.63 75.7964C199.902 75.7964 197.691 78.0261 197.691 80.7766C197.691 83.5272 199.902 85.7569 202.63 85.7569Z" fill="#FFB8B8"/>
<path d="M204.885 81.5345L204.24 91.7115L199.731 88.4635C199.731 88.4635 201.234 82.4006 200.804 81.9675L204.885 81.5345Z" fill="#FFB8B8"/>
<path d="M204.885 90.8454L200.026 87.2179C200.026 87.2179 197.798 86.2982 197.154 87.3809C196.51 88.4635 193.288 104.487 195.006 107.518C195.006 107.518 204.24 109.467 206.173 108.385L207.032 102.755C207.032 102.755 208.106 99.2902 206.388 97.1249L204.885 90.8454Z" fill="#FB3C3E"/>
<path d="M198.442 87.5974C198.442 87.5974 196.724 86.2982 195.221 88.4635C193.718 90.6289 175.679 107.735 175.679 107.735L178.686 111.199L190.497 101.239L198.013 95.1761L198.442 87.5974Z" fill="#FB3C3E"/>
<path d="M206.28 108.276C206.28 108.276 195.651 106.219 194.577 107.735L194.362 110.117C194.362 110.117 192 114.664 193.288 122.026C194.577 129.388 193.718 133.935 193.718 133.935C193.718 133.935 199.516 133.286 203.811 133.935C208.106 134.585 208.75 133.935 208.75 133.935L206.28 108.276Z" fill="#2F2E41"/>
<path d="M208.965 139.565L202.737 139.782L204.885 156.022C204.885 156.022 203.167 162.951 205.099 163.384C206.443 163.657 207.809 163.802 209.179 163.817C209.179 163.817 211.112 165.766 213.26 165.549C214.686 165.366 216.068 164.925 217.34 164.25C217.34 164.25 217.769 162.951 216.266 162.518C214.763 162.085 210.683 160.785 209.824 156.238L208.965 139.565Z" fill="#2F2E41"/>
<path d="M200.16 139.565L193.933 139.782L196.08 156.022C196.08 156.022 194.362 162.951 196.295 163.384C197.638 163.657 199.004 163.802 200.375 163.817C200.375 163.817 202.308 165.766 204.455 165.549C205.881 165.366 207.263 164.925 208.535 164.25C208.535 164.25 208.965 162.951 207.461 162.518C205.958 162.085 201.878 160.785 201.019 156.238L200.16 139.565Z" fill="#2F2E41"/>
<path d="M205.633 74.7071C207.127 74.7071 208.339 73.4856 208.339 71.9788C208.339 70.472 207.127 69.2505 205.633 69.2505C204.139 69.2505 202.927 70.472 202.927 71.9788C202.927 73.4856 204.139 74.7071 205.633 74.7071Z" fill="#2F2E41"/>
<path d="M209.241 70.501C209.241 69.8266 208.993 69.1762 208.545 68.6751C208.098 68.174 207.482 67.8578 206.817 67.7875C206.91 67.7777 207.005 67.7728 207.099 67.7727C207.816 67.7727 208.505 68.0602 209.012 68.5718C209.519 69.0835 209.804 69.7774 209.804 70.501C209.804 71.2246 209.519 71.9185 209.012 72.4302C208.505 72.9418 207.816 73.2293 207.099 73.2293C207.005 73.2292 206.91 73.2243 206.817 73.2145C207.482 73.1442 208.098 72.828 208.545 72.3269C208.993 71.8258 209.241 71.1754 209.241 70.501Z" fill="#2F2E41"/>
<path d="M202.585 80.2485C205.076 80.2485 207.095 79.027 207.095 77.5203C207.095 76.0135 205.076 74.792 202.585 74.792C200.095 74.792 198.076 76.0135 198.076 77.5203C198.076 79.027 200.095 80.2485 202.585 80.2485Z" fill="#2F2E41"/>
<path d="M273.615 13.0943C273.431 9.81036 272.096 6.69914 269.849 4.31531C267.601 1.93149 264.587 0.430009 261.344 0.0785851C258.1 -0.272839 254.839 0.548633 252.14 2.39654C249.442 4.24444 247.482 6.99866 246.61 10.1681C246.443 10.1621 246.276 10.1554 246.108 10.1554C243.135 10.1559 240.241 11.1273 237.86 12.9242C235.48 14.7211 233.74 17.2469 232.902 20.1238C230.931 19.2507 228.729 19.0613 226.641 19.5852C224.552 20.1091 222.694 21.3166 221.359 23.0188H264.295C265.547 23.0223 266.787 22.771 267.941 22.2799C269.095 21.7887 270.139 21.0678 271.01 20.1603C271.882 19.2528 272.562 18.1773 273.011 16.9984C273.461 15.8194 273.669 14.5612 273.625 13.299C273.622 13.2308 273.619 13.1626 273.615 13.0943Z" fill="#E6E6E6"/>
<path d="M237.722 42.3036C239.764 42.3036 241.419 40.6347 241.419 38.5758C241.419 36.517 239.764 34.8481 237.722 34.8481C235.68 34.8481 234.025 36.517 234.025 38.5758C234.025 40.6347 235.68 42.3036 237.722 42.3036Z" fill="#E6E6E6"/>
<path d="M248.885 32.8908C250.585 32.8908 251.963 31.5011 251.963 29.7868C251.963 28.0726 250.585 26.6829 248.885 26.6829C247.185 26.6829 245.806 28.0726 245.806 29.7868C245.806 31.5011 247.185 32.8908 248.885 32.8908Z" fill="#E6E6E6"/>
<path d="M263.909 50.3806C265.951 50.3806 267.606 48.7116 267.606 46.6528C267.606 44.5939 265.951 42.925 263.909 42.925C261.867 42.925 260.212 44.5939 260.212 46.6528C260.212 48.7116 261.867 50.3806 263.909 50.3806Z" fill="#E6E6E6"/>
<path d="M235.873 67.4663C237.915 67.4663 239.57 65.7973 239.57 63.7385C239.57 61.6797 237.915 60.0107 235.873 60.0107C233.832 60.0107 232.176 61.6797 232.176 63.7385C232.176 65.7973 233.832 67.4663 235.873 67.4663Z" fill="#E6E6E6"/>
<path d="M263.909 88.9011C265.951 88.9011 267.606 87.2321 267.606 85.1733C267.606 83.1145 265.951 81.4455 263.909 81.4455C261.867 81.4455 260.212 83.1145 260.212 85.1733C260.212 87.2321 261.867 88.9011 263.909 88.9011Z" fill="#E6E6E6"/>
<path d="M258.049 157.054C258.051 157.014 258.055 156.974 258.055 156.933C258.056 156.309 257.901 155.694 257.605 155.146C257.308 154.597 256.879 154.133 256.358 153.795C255.837 153.458 255.24 153.258 254.622 153.215C254.004 153.171 253.385 153.285 252.822 153.546C252.294 152.931 251.58 152.508 250.791 152.341C250.001 152.175 249.179 152.274 248.451 152.623C247.723 152.973 247.128 153.554 246.758 154.277C246.389 154.999 246.264 155.825 246.404 156.626C246.385 156.625 246.367 156.623 246.348 156.623C245.76 156.622 245.179 156.763 244.656 157.033C244.132 157.304 243.68 157.697 243.337 158.179C242.994 158.662 242.771 159.22 242.685 159.807C242.599 160.394 242.654 160.993 242.844 161.555C243.034 162.117 243.354 162.624 243.778 163.036C244.202 163.448 244.717 163.751 245.281 163.921C245.845 164.092 246.441 164.124 247.02 164.015C247.598 163.907 248.143 163.66 248.608 163.297C248.901 163.873 249.339 164.362 249.877 164.716C250.415 165.07 251.036 165.276 251.677 165.314C252.319 165.353 252.959 165.221 253.535 164.934C254.111 164.646 254.602 164.212 254.961 163.675C255.401 163.997 255.906 164.218 256.44 164.321C256.975 164.424 257.525 164.407 258.052 164.271C258.579 164.134 259.07 163.882 259.489 163.533C259.908 163.183 260.245 162.744 260.477 162.248C260.708 161.752 260.828 161.21 260.828 160.661C260.828 160.113 260.708 159.571 260.476 159.075C260.244 158.579 259.906 158.14 259.487 157.791C259.067 157.442 258.576 157.19 258.049 157.054Z" fill="#E6E6E6"/>
<path d="M267.298 71.8154C268.149 71.8154 268.838 71.12 268.838 70.2621C268.838 69.4043 268.149 68.7089 267.298 68.7089C266.447 68.7089 265.758 69.4043 265.758 70.2621C265.758 71.12 266.447 71.8154 267.298 71.8154Z" fill="#E6E6E6"/>
<path d="M257.439 34.5374C258.29 34.5374 258.98 33.842 258.98 32.9842C258.98 32.1263 258.29 31.4309 257.439 31.4309C256.588 31.4309 255.899 32.1263 255.899 32.9842C255.899 33.842 256.588 34.5374 257.439 34.5374Z" fill="#E6E6E6"/>
<path d="M252.202 73.058C253.053 73.058 253.742 72.3626 253.742 71.5047C253.742 70.6469 253.053 69.9515 252.202 69.9515C251.351 69.9515 250.661 70.6469 250.661 71.5047C250.661 72.3626 251.351 73.058 252.202 73.058Z" fill="#E6E6E6"/>
<path d="M253.434 71.5047C254.285 71.5047 254.975 70.8093 254.975 69.9515C254.975 69.0937 254.285 68.3982 253.434 68.3982C252.583 68.3982 251.894 69.0937 251.894 69.9515C251.894 70.8093 252.583 71.5047 253.434 71.5047Z" fill="#E6E6E6"/>
<path d="M254.358 69.9515C255.209 69.9515 255.899 69.2561 255.899 68.3982C255.899 67.5404 255.209 66.845 254.358 66.845C253.508 66.845 252.818 67.5404 252.818 68.3982C252.818 69.2561 253.508 69.9515 254.358 69.9515Z" fill="#E6E6E6"/>
<path d="M250.661 82.9988C251.512 82.9988 252.202 82.3034 252.202 81.4455C252.202 80.5877 251.512 79.8923 250.661 79.8923C249.811 79.8923 249.121 80.5877 249.121 81.4455C249.121 82.3034 249.811 82.9988 250.661 82.9988Z" fill="#E6E6E6"/>
<path d="M273.46 100.395C274.31 100.395 275 99.6998 275 98.8419C275 97.9841 274.31 97.2887 273.46 97.2887C272.609 97.2887 271.919 97.9841 271.919 98.8419C271.919 99.6998 272.609 100.395 273.46 100.395Z" fill="#E6E6E6"/>
<path d="M240.495 101.327C241.345 101.327 242.035 100.632 242.035 99.7739C242.035 98.916 241.345 98.2206 240.495 98.2206C239.644 98.2206 238.954 98.916 238.954 99.7739C238.954 100.632 239.644 101.327 240.495 101.327Z" fill="#E6E6E6"/>
<path d="M242.343 53.4871C243.194 53.4871 243.884 52.7916 243.884 51.9338C243.884 51.076 243.194 50.3806 242.343 50.3806C241.492 50.3806 240.803 51.076 240.803 51.9338C240.803 52.7916 241.492 53.4871 242.343 53.4871Z" fill="#E6E6E6"/>
<path d="M249.429 81.4455C250.28 81.4455 250.969 80.7501 250.969 79.8923C250.969 79.0344 250.28 78.339 249.429 78.339C248.578 78.339 247.889 79.0344 247.889 79.8923C247.889 80.7501 248.578 81.4455 249.429 81.4455Z" fill="#E6E6E6"/>
<path d="M247.889 78.9603C248.739 78.9603 249.429 78.2649 249.429 77.4071C249.429 76.5492 248.739 75.8538 247.889 75.8538C247.038 75.8538 246.348 76.5492 246.348 77.4071C246.348 78.2649 247.038 78.9603 247.889 78.9603Z" fill="#E6E6E6"/>
</g>
<defs>
<clipPath id="clip0_9701_66012">
<rect width="275" height="168" fill="white"/>
</clipPath>
</defs>
</svg>
