<svg width="174" height="167" viewBox="0 0 174 167" fill="none" xmlns="http://www.w3.org/2000/svg">
<g clip-path="url(#clip0_9701_65900)">
<path d="M146.438 39.5819H145.524V14.5105C145.524 10.6621 143.995 6.97128 141.273 4.25003C138.552 1.52878 134.861 1.89282e-09 131.013 1.89282e-09H77.8927C75.9871 -3.07752e-05 74.1001 0.375264 72.3396 1.10446C70.579 1.83365 68.9793 2.90246 67.6318 4.24987C66.2843 5.59727 65.2154 7.19688 64.4861 8.95737C63.7569 10.7179 63.3815 12.6047 63.3815 14.5103V152.054C63.3815 155.902 64.9103 159.593 67.6316 162.314C70.353 165.035 74.0439 166.564 77.8925 166.564H131.012C134.86 166.564 138.551 165.035 141.273 162.314C143.994 159.593 145.523 155.902 145.523 152.054V57.4281H146.437L146.438 39.5819Z" fill="#3F3D56"/>
<path d="M142.547 13.5386V153.025C142.547 155.943 141.388 158.741 139.324 160.805C137.261 162.868 134.463 164.028 131.545 164.029H77.3357C74.4166 164.029 71.6169 162.87 69.5524 160.807C67.4878 158.743 66.3275 155.944 66.3267 153.025V13.5386C66.3275 10.6198 67.4878 7.82077 69.5522 5.75726C71.6167 3.69375 74.4163 2.53472 77.3352 2.5351H83.9112C83.5883 3.32911 83.4654 4.19028 83.5533 5.04292C83.6412 5.89555 83.9372 6.71354 84.4153 7.425C84.8933 8.13645 85.5389 8.71958 86.2951 9.12313C87.0513 9.52668 87.8951 9.7383 88.7523 9.73938H119.658C120.515 9.7383 121.359 9.52668 122.115 9.12313C122.872 8.71958 123.517 8.13645 123.995 7.425C124.473 6.71354 124.769 5.89555 124.857 5.04292C124.945 4.19028 124.822 3.32911 124.499 2.5351H131.543C134.461 2.53559 137.259 3.69476 139.323 5.75776C141.386 7.82076 142.546 10.6187 142.547 13.5365V13.5386Z" fill="white"/>
<path d="M104.427 69.5338C116.926 69.5338 127.059 59.4015 127.059 46.9026C127.059 34.4038 116.926 24.2715 104.427 24.2715C91.9276 24.2715 81.7949 34.4038 81.7949 46.9026C81.7949 59.4015 91.9276 69.5338 104.427 69.5338Z" fill="#FB3C3E"/>
<path d="M129.11 93.8845H80.9381C80.7016 93.8842 80.4749 93.7902 80.3077 93.6229C80.1404 93.4557 80.0464 93.229 80.0461 92.9925V81.0438C80.0465 80.8073 80.1405 80.5806 80.3077 80.4134C80.475 80.2462 80.7017 80.1521 80.9381 80.1518H129.11C129.346 80.1521 129.573 80.2462 129.74 80.4134C129.907 80.5806 130.001 80.8073 130.002 81.0438V92.9927C130.001 93.2292 129.907 93.4559 129.74 93.6231C129.573 93.7903 129.346 93.8844 129.11 93.8847V93.8845ZM80.9381 80.5085C80.7962 80.5086 80.6601 80.565 80.5598 80.6654C80.4594 80.7658 80.403 80.9018 80.4028 81.0438V92.9927C80.403 93.1346 80.4594 93.2707 80.5598 93.3711C80.6601 93.4714 80.7962 93.5279 80.9381 93.528H129.11C129.252 93.5279 129.388 93.4714 129.488 93.3711C129.589 93.2707 129.645 93.1346 129.645 92.9927V81.0438C129.645 80.9018 129.589 80.7658 129.488 80.6654C129.388 80.565 129.252 80.5086 129.11 80.5085H80.9381Z" fill="#E6E6E6"/>
<path d="M95.8357 84.4549C95.67 84.4549 95.5112 84.5207 95.3941 84.6378C95.277 84.7549 95.2112 84.9137 95.2112 85.0793C95.2112 85.245 95.277 85.4038 95.3941 85.5209C95.5112 85.638 95.67 85.7038 95.8357 85.7038H125.274C125.439 85.7101 125.6 85.6505 125.722 85.5379C125.844 85.4254 125.915 85.2691 125.922 85.1036C125.928 84.9381 125.868 84.7768 125.756 84.6553C125.643 84.5338 125.487 84.4619 125.321 84.4556C125.312 84.4552 125.303 84.4551 125.294 84.4551H95.8356L95.8357 84.4549Z" fill="#E6E6E6"/>
<path d="M95.8357 88.2009C95.67 88.2009 95.5112 88.2667 95.3941 88.3838C95.277 88.5009 95.2112 88.6598 95.2112 88.8254C95.2112 88.991 95.277 89.1498 95.3941 89.267C95.5112 89.3841 95.67 89.4499 95.8357 89.4499H125.274C125.439 89.4562 125.6 89.3965 125.722 89.284C125.844 89.1714 125.915 89.0152 125.922 88.8497C125.928 88.6841 125.868 88.5229 125.756 88.4013C125.643 88.2798 125.487 88.208 125.321 88.2016C125.312 88.2013 125.303 88.2011 125.294 88.2012H95.8356L95.8357 88.2009Z" fill="#E6E6E6"/>
<path d="M129.11 113.801H80.9381C80.7016 113.8 80.4749 113.706 80.3077 113.539C80.1404 113.372 80.0464 113.145 80.0461 112.909V100.96C80.0465 100.723 80.1405 100.497 80.3077 100.329C80.475 100.162 80.7017 100.068 80.9381 100.068H129.11C129.346 100.068 129.573 100.162 129.74 100.329C129.907 100.497 130.001 100.723 130.002 100.96V112.909C130.001 113.145 129.907 113.372 129.74 113.539C129.573 113.706 129.346 113.8 129.11 113.801ZM80.9381 100.425C80.7962 100.425 80.6601 100.481 80.5598 100.581C80.4594 100.682 80.403 100.818 80.4028 100.96V112.909C80.403 113.051 80.4594 113.187 80.5598 113.287C80.6601 113.388 80.7962 113.444 80.9381 113.444H129.11C129.252 113.444 129.388 113.388 129.488 113.287C129.589 113.187 129.645 113.051 129.645 112.909V100.96C129.645 100.818 129.589 100.682 129.488 100.581C129.388 100.481 129.252 100.425 129.11 100.425H80.9381Z" fill="#E6E6E6"/>
<path d="M95.8357 104.436C95.67 104.436 95.5112 104.501 95.3941 104.619C95.277 104.736 95.2112 104.895 95.2112 105.06C95.2112 105.226 95.277 105.385 95.3941 105.502C95.5112 105.619 95.67 105.685 95.8357 105.685H125.274C125.437 105.684 125.593 105.619 125.709 105.504C125.825 105.389 125.892 105.233 125.895 105.07C125.897 104.907 125.836 104.749 125.724 104.631C125.611 104.512 125.457 104.442 125.294 104.436H95.8357V104.436Z" fill="#E6E6E6"/>
<path d="M95.8357 108.183C95.67 108.183 95.5112 108.248 95.3941 108.366C95.277 108.483 95.2112 108.641 95.2112 108.807C95.2112 108.973 95.277 109.132 95.3941 109.249C95.5112 109.366 95.67 109.432 95.8357 109.432H125.274C125.437 109.431 125.593 109.366 125.709 109.251C125.825 109.136 125.892 108.98 125.895 108.817C125.897 108.654 125.836 108.496 125.724 108.378C125.611 108.259 125.457 108.189 125.294 108.183H95.8357V108.183Z" fill="#E6E6E6"/>
<path d="M129.11 133.782H80.9381C80.7016 133.782 80.4749 133.687 80.3077 133.52C80.1404 133.353 80.0464 133.126 80.0461 132.89V120.941C80.0465 120.705 80.1405 120.478 80.3077 120.311C80.475 120.143 80.7017 120.049 80.9381 120.049H129.11C129.346 120.049 129.573 120.143 129.74 120.311C129.907 120.478 130.001 120.705 130.002 120.941V132.89C130.001 133.126 129.907 133.353 129.74 133.52C129.573 133.688 129.346 133.782 129.11 133.782V133.782ZM80.9381 120.406C80.7962 120.406 80.6601 120.462 80.5598 120.563C80.4594 120.663 80.403 120.799 80.4028 120.941V132.89C80.403 133.032 80.4594 133.168 80.5598 133.268C80.6601 133.369 80.7962 133.425 80.9381 133.425H129.11C129.252 133.425 129.388 133.369 129.488 133.268C129.589 133.168 129.645 133.032 129.645 132.89V120.941C129.645 120.799 129.589 120.663 129.488 120.563C129.388 120.462 129.252 120.406 129.11 120.406H80.9381Z" fill="#E6E6E6"/>
<path d="M95.8357 124.418C95.67 124.418 95.5112 124.483 95.3941 124.6C95.277 124.718 95.2112 124.876 95.2112 125.042C95.2112 125.208 95.277 125.367 95.3941 125.484C95.5112 125.601 95.67 125.667 95.8357 125.667H125.274C125.356 125.67 125.437 125.657 125.514 125.628C125.591 125.6 125.662 125.556 125.722 125.501C125.782 125.445 125.831 125.378 125.865 125.303C125.899 125.229 125.919 125.148 125.922 125.066C125.925 124.984 125.912 124.903 125.883 124.826C125.855 124.749 125.812 124.678 125.756 124.618C125.7 124.558 125.633 124.509 125.559 124.475C125.484 124.441 125.403 124.421 125.321 124.418C125.312 124.418 125.303 124.418 125.294 124.418H95.8356L95.8357 124.418Z" fill="#E6E6E6"/>
<path d="M95.8357 128.164C95.67 128.164 95.5112 128.23 95.3941 128.347C95.277 128.464 95.2112 128.623 95.2112 128.789C95.2112 128.954 95.277 129.113 95.3941 129.23C95.5112 129.347 95.67 129.413 95.8357 129.413H125.274C125.356 129.416 125.437 129.403 125.514 129.375C125.591 129.346 125.662 129.303 125.722 129.247C125.782 129.192 125.831 129.125 125.865 129.05C125.899 128.976 125.919 128.895 125.922 128.813C125.925 128.731 125.912 128.649 125.883 128.572C125.855 128.495 125.812 128.425 125.756 128.365C125.7 128.305 125.633 128.256 125.559 128.222C125.484 128.187 125.403 128.168 125.321 128.165C125.312 128.165 125.303 128.165 125.294 128.165H95.8356L95.8357 128.164Z" fill="#E6E6E6"/>
<path d="M173.546 167H0.454206C0.203196 167 0 166.89 0 166.755C0 166.62 0.20343 166.51 0.454206 166.51H173.546C173.797 166.51 174 166.62 174 166.755C174 166.89 173.797 167 173.546 167Z" fill="#E6E6E6"/>
<path d="M166.215 157.446C165.476 157.706 164.682 157.771 163.91 157.635C163.138 157.499 162.414 157.167 161.808 156.67C160.264 155.374 159.78 153.24 159.386 151.263L158.221 145.417L160.66 147.096C162.414 148.304 164.207 149.55 165.421 151.299C166.636 153.048 167.166 155.436 166.19 157.328" fill="#E6E6E6"/>
<path d="M165.839 164.931C166.146 162.695 166.461 160.43 166.246 158.17C166.055 156.163 165.442 154.202 164.195 152.595C163.534 151.743 162.728 151.013 161.816 150.439C161.578 150.288 161.359 150.665 161.596 150.815C163.175 151.813 164.396 153.286 165.083 155.023C165.843 156.955 165.965 159.06 165.833 161.111C165.754 162.352 165.587 163.584 165.418 164.815C165.404 164.871 165.413 164.93 165.441 164.979C165.469 165.029 165.515 165.066 165.57 165.083C165.626 165.098 165.685 165.091 165.735 165.062C165.786 165.034 165.822 164.987 165.838 164.931H165.839Z" fill="#F2F2F2"/>
<path d="M163.629 161.343C163.312 161.825 162.876 162.217 162.363 162.482C161.851 162.746 161.278 162.875 160.702 162.854C159.22 162.784 157.984 161.749 156.872 160.768L153.583 157.863L155.76 157.759C157.325 157.684 158.931 157.614 160.424 158.097C161.916 158.58 163.29 159.742 163.563 161.284" fill="#E6E6E6"/>
<path d="M166.706 166.217C165.229 163.602 163.514 160.696 160.452 159.767C159.6 159.51 158.707 159.418 157.821 159.496C157.542 159.519 157.612 159.95 157.892 159.926C159.377 159.803 160.859 160.195 162.09 161.037C163.273 161.843 164.195 162.963 164.975 164.151C165.453 164.877 165.881 165.637 166.309 166.394C166.445 166.636 166.844 166.461 166.706 166.217Z" fill="#F2F2F2"/>
<path d="M86.9478 90.6913C89.017 90.6913 90.6944 89.0139 90.6944 86.9448C90.6944 84.8756 89.017 83.1983 86.9478 83.1983C84.8786 83.1983 83.2012 84.8756 83.2012 86.9448C83.2012 89.0139 84.8786 90.6913 86.9478 90.6913Z" fill="#FB3C3E"/>
<path d="M85.1542 86.2449C85.1111 86.2449 85.0762 86.5245 85.0762 86.8693C85.0762 87.214 85.1111 87.4939 85.1542 87.4939H88.8383C88.8814 87.4995 88.917 87.2246 88.9177 86.8798C88.9417 86.6652 88.9153 86.4479 88.8408 86.2452H85.1542V86.2449Z" fill="#E6E6E6"/>
<path d="M86.9478 110.681C89.017 110.681 90.6944 109.003 90.6944 106.934C90.6944 104.865 89.017 103.188 86.9478 103.188C84.8786 103.188 83.2012 104.865 83.2012 106.934C83.2012 109.003 84.8786 110.681 86.9478 110.681Z" fill="#FB3C3E"/>
<path d="M85.1542 106.234C85.1111 106.234 85.0762 106.514 85.0762 106.859C85.0762 107.203 85.1111 107.483 85.1542 107.483H88.8383C88.8814 107.489 88.917 107.214 88.9177 106.869C88.9417 106.655 88.9153 106.437 88.8408 106.235H85.1542V106.234Z" fill="#E6E6E6"/>
<path d="M86.9478 130.662C89.017 130.662 90.6944 128.985 90.6944 126.915C90.6944 124.846 89.017 123.169 86.9478 123.169C84.8786 123.169 83.2012 124.846 83.2012 126.915C83.2012 128.985 84.8786 130.662 86.9478 130.662Z" fill="#FB3C3E"/>
<path d="M85.1542 126.216C85.1111 126.216 85.0762 126.495 85.0762 126.84C85.0762 127.185 85.1111 127.465 85.1542 127.465H88.8383C88.8814 127.47 88.917 127.195 88.9177 126.851C88.9417 126.636 88.9153 126.419 88.8408 126.216H85.1542V126.216Z" fill="#E6E6E6"/>
<path d="M99.5381 40.6882L98.2123 42.0139L109.316 53.1171L110.642 51.7913L99.5381 40.6882Z" fill="white"/>
<path d="M110.642 42.0139L109.316 40.6882L98.2123 51.7913L99.5381 53.1171L110.642 42.0139Z" fill="white"/>
<path d="M21.1541 106.901C21.4789 106.786 21.7745 106.601 22.0202 106.359C22.2659 106.118 22.4556 105.825 22.576 105.502C22.6963 105.18 22.7445 104.834 22.717 104.491C22.6895 104.148 22.587 103.814 22.4168 103.515L27.9398 97.2189L23.6284 96.6241L19.0447 102.694C18.5604 103.013 18.2101 103.499 18.0601 104.059C17.9101 104.62 17.9708 105.216 18.2309 105.734C18.4909 106.253 18.9321 106.658 19.4708 106.873C20.0096 107.088 20.6085 107.098 21.1541 106.901Z" fill="#9F616A"/>
<path d="M27.8148 162.698L23.9629 162.697L22.1304 147.84L27.8155 147.84L27.8148 162.698Z" fill="#9F616A"/>
<path d="M28.7972 166.431L16.3768 166.431V166.274C16.3769 164.992 16.8863 163.762 17.7929 162.856C18.6995 161.949 19.9291 161.44 21.2112 161.44H21.2115L28.7974 161.44L28.7972 166.431Z" fill="#2F2E41"/>
<path d="M47.9785 159.474L44.2999 160.616L38.1439 146.971L43.5733 145.285L47.9785 159.474Z" fill="#9F616A"/>
<path d="M50.024 162.749L38.1622 166.431L38.1156 166.281C37.7354 165.057 37.8573 163.732 38.4542 162.597C39.0512 161.462 40.0745 160.611 41.2989 160.231L41.2992 160.231L48.544 157.982L50.024 162.749Z" fill="#2F2E41"/>
<path d="M24.865 94.2001L19.1602 100.734L23.6263 101.135L24.865 94.2001Z" fill="#E6E6E6"/>
<path d="M22.6359 102.621C22.6359 102.621 20.6543 103.612 20.4066 108.071C20.1589 112.529 21.1498 124.171 21.1498 124.171C21.1498 124.171 20.1591 129.373 21.1498 134.079C22.1404 138.785 20.1591 155.874 21.3975 155.874C22.6359 155.874 29.0759 156.618 29.3236 155.874C29.5714 155.131 29.8191 143.985 29.8191 143.985C29.8191 143.985 31.8007 138.289 29.8191 134.822C29.8191 134.822 36.7379 146.903 41.213 156.123C42.1924 158.141 49.6346 155.875 48.3962 153.646C47.1578 151.417 44.1855 141.261 44.1855 141.261C44.1855 141.261 41.9562 133.831 37.9932 130.611L39.9748 114.759C39.9748 114.759 44.1857 104.108 41.7091 102.622C39.2325 101.136 22.6359 102.621 22.6359 102.621Z" fill="#2F2E41"/>
<path d="M30.0666 62.2482C33.6233 62.2482 36.5066 59.365 36.5066 55.8084C36.5066 52.2518 33.6233 49.3686 30.0666 49.3686C26.5099 49.3686 23.6266 52.2518 23.6266 55.8084C23.6266 59.365 26.5099 62.2482 30.0666 62.2482Z" fill="#A0616A"/>
<path d="M37.2498 62.7436L29.2437 67.4496C29.2437 67.4496 26.1782 69.1759 25.033 72.1556C23.8124 75.3312 24.5219 79.8023 25.033 80.8246C26.0237 82.8062 24.6175 87.7599 24.6175 87.7599L23.3791 99.1534C23.3791 99.1534 18.9207 103.364 22.3884 103.859C25.8561 104.355 32.0484 103.612 35.7639 103.859C39.4793 104.107 43.69 104.603 42.4516 102.125C41.2132 99.6477 39.7271 97.9143 41.2132 92.9615C42.3762 89.0852 42.3258 74.5915 42.2489 68.4707C42.2383 67.6302 42.0128 66.8063 41.594 66.0775C41.1751 65.3486 40.5767 64.7391 39.8557 64.3068L37.2498 62.7436Z" fill="#E5E5E5"/>
<path opacity="0.1" d="M33.6592 70.546L34.4022 85.6548L27.2009 100.238L25.9796 99.7728L33.4105 86.15L33.6592 70.546Z" fill="black"/>
<path opacity="0.1" d="M41.8322 88.8745V87.1402L33.4115 101.011L41.8322 88.8745Z" fill="black"/>
<path d="M25.4959 49.8427L24.4321 49.4171C24.4321 49.4171 26.6587 46.9664 29.7554 47.1794L28.8842 46.2204C28.8842 46.2204 31.0135 45.368 32.9494 47.6055C33.967 48.7817 35.1442 50.1645 35.879 51.7218H37.0192L36.5434 52.7696L38.2089 53.8175L36.4994 53.63C36.6613 54.5346 36.6059 55.4647 36.3376 56.3437L36.3845 57.1719C36.3845 57.1719 34.402 54.1043 34.402 53.6787V54.7444C34.402 54.7444 33.3372 53.7854 33.3372 53.146L32.7565 53.892L32.4661 52.7202L28.8849 53.892L29.4652 52.9325L27.2387 53.2522L28.1099 52.0804C28.1099 52.0804 25.5934 53.4655 25.4966 54.6377C25.3999 55.81 24.1418 57.3015 24.1418 57.3015L23.561 56.2359C23.561 56.2359 22.6901 51.441 25.4959 49.8427Z" fill="#2F2E41"/>
<path d="M29.6625 107.602C29.9617 107.431 30.2199 107.196 30.4187 106.915C30.6176 106.634 30.7524 106.312 30.8136 105.973C30.8748 105.634 30.8608 105.286 30.7728 104.953C30.6848 104.62 30.5248 104.31 30.3041 104.045L34.6218 96.8691L30.2734 97.049L26.8399 103.836C26.42 104.236 26.1614 104.777 26.1133 105.355C26.0651 105.933 26.2307 106.508 26.5786 106.972C26.9265 107.437 27.4326 107.757 28.001 107.873C28.5694 107.989 29.1605 107.892 29.6625 107.602Z" fill="#9F616A"/>
<path d="M39.4793 65.964L41.3369 65.5925C41.3369 65.5925 46.91 69.6793 45.1761 77.8529C43.4423 86.0265 35.7639 98.4109 35.7639 98.4109C35.7639 98.4109 34.0295 100.64 33.5345 101.135C33.0395 101.631 32.0484 101.135 32.5438 101.879C33.0393 102.622 31.8007 103.117 31.8007 103.117C31.8007 103.117 26.3513 103.117 26.8468 101.135C27.3422 99.1538 35.7639 85.0347 35.7639 85.0347L34.5254 71.9074C34.5254 71.9074 33.5343 65.4685 39.4793 65.964Z" fill="#E5E5E5"/>
</g>
<defs>
<clipPath id="clip0_9701_65900">
<rect width="174" height="167" fill="white"/>
</clipPath>
</defs>
</svg>
