<svg width="69" height="69" viewBox="0 0 69 69" fill="none" xmlns="http://www.w3.org/2000/svg">
<path d="M34.5 5.75C18.63 5.75 5.75 18.63 5.75 34.5C5.75 50.37 18.63 63.25 34.5 63.25C50.37 63.25 63.25 50.37 63.25 34.5C63.25 18.63 50.37 5.75 34.5 5.75ZM34.5 57.5C21.8213 57.5 11.5 47.1787 11.5 34.5C11.5 21.8213 21.8213 11.5 34.5 11.5C47.1787 11.5 57.5 21.8213 57.5 34.5C57.5 47.1787 47.1787 57.5 34.5 57.5ZM47.6963 21.7925L28.75 40.7388L21.3037 33.3213L17.25 37.375L28.75 48.875L51.75 25.875L47.6963 21.7925Z" fill="white"/>
</svg>
