<svg width="175" height="168" viewBox="0 0 175 168" fill="none" xmlns="http://www.w3.org/2000/svg">
<g clip-path="url(#clip0_9701_66066)">
<path d="M96 70.0172C96 70.768 95.9757 71.5126 95.9271 72.2508C95.6545 76.5087 94.58 80.6765 92.7601 84.5345C92.746 84.5675 92.7295 84.5981 92.7155 84.6287C92.6308 84.8075 92.5437 84.9864 92.4544 85.1629C91.9132 86.2541 91.3127 87.3148 90.6558 88.3404C87.655 93.0482 83.5421 96.9437 78.6803 99.6825C73.8186 102.421 68.3578 103.919 62.7805 104.044L63.1168 123.4L67.5017 121.089L68.2846 122.579L63.1497 125.286L63.7775 161.235L63.7845 161.715L60.3941 162L60.4011 161.988L61.4686 104.046C56.9794 103.982 52.5477 103.025 48.4309 101.232C44.314 99.4389 40.594 96.8449 37.4868 93.6008C37.2729 93.3795 37.0612 93.1512 36.8544 92.9253C36.845 92.9158 36.838 92.9064 36.8308 92.8994C34.242 90.0732 32.1483 86.8298 30.6379 83.3059C30.6709 83.3436 30.7061 83.3789 30.7391 83.4165C27.3256 75.4259 27.0941 66.431 30.092 58.2749C33.0899 50.1189 39.0901 43.4194 46.8632 39.5493C46.9807 39.4905 47.1007 39.434 47.2183 39.3751C54.9073 35.6676 63.7071 34.9874 71.8735 37.4691C80.04 39.9509 86.9769 45.4136 91.3094 52.7744C91.5164 53.1228 91.7162 53.4782 91.909 53.8359C94.6002 58.8034 96.0066 64.3662 96 70.0172Z" fill="#E5E5E5"/>
<path d="M80.5261 162.287C90.1857 162.287 98.0163 154.433 98.0163 144.744C98.0163 135.055 90.1857 127.2 80.5261 127.2C70.8665 127.2 63.0359 135.055 63.0359 144.744C63.0359 154.433 70.8665 162.287 80.5261 162.287Z" fill="#2F2E41"/>
<path d="M101.198 156.803H85.5286V162.133H101.198V156.803Z" fill="#2F2E41"/>
<path d="M101.309 162.133C102.226 162.133 102.969 160.144 102.969 157.691C102.969 155.238 102.226 153.25 101.309 153.25C100.391 153.25 99.6481 155.238 99.6481 157.691C99.6481 160.144 100.391 162.133 101.309 162.133Z" fill="#2F2E41"/>
<path d="M97.5428 156.396H81.8735V161.725H97.5428V156.396Z" fill="#2F2E41"/>
<path d="M97.6536 161.725C98.5707 161.725 99.3141 159.737 99.3141 157.284C99.3141 154.831 98.5707 152.843 97.6536 152.843C96.7366 152.843 95.9932 154.831 95.9932 157.284C95.9932 159.737 96.7366 161.725 97.6536 161.725Z" fill="#2F2E41"/>
<path d="M63.56 128.429C62.1477 122.085 66.6621 115.674 73.6432 114.111C80.6243 112.547 87.4284 116.422 88.8407 122.766C90.2529 129.11 85.6263 131.45 78.6452 133.014C71.6642 134.577 64.9722 134.773 63.56 128.429Z" fill="#FCC213"/>
<path d="M87.2484 143.745C86.3336 143.763 85.4361 143.493 84.6826 142.973C83.9292 142.452 83.3578 141.707 83.0492 140.843C83.0322 140.792 83.0254 140.739 83.029 140.685C83.0327 140.632 83.0468 140.58 83.0706 140.532C83.0943 140.484 83.1272 140.441 83.1674 140.406C83.2076 140.371 83.2544 140.344 83.3049 140.327C83.3555 140.31 83.4089 140.303 83.4621 140.307C83.5153 140.311 83.5672 140.325 83.615 140.349C83.6628 140.372 83.7054 140.405 83.7404 140.446C83.7754 140.486 83.8022 140.533 83.8192 140.584C84.4341 142.42 86.5394 143.38 88.5117 142.724C89.4909 142.404 90.3044 141.709 90.7747 140.79C90.9766 140.394 91.0979 139.962 91.1318 139.519C91.1656 139.075 91.1113 138.63 90.9719 138.208C90.9549 138.157 90.9481 138.104 90.9517 138.05C90.9554 137.997 90.9695 137.945 90.9932 137.897C91.017 137.849 91.0499 137.806 91.0901 137.771C91.1303 137.736 91.177 137.709 91.2276 137.692C91.2782 137.675 91.3316 137.668 91.3848 137.672C91.438 137.676 91.4899 137.69 91.5377 137.714C91.5854 137.737 91.6281 137.77 91.6631 137.811C91.6981 137.851 91.7249 137.898 91.7419 137.949C91.9156 138.472 91.9838 139.025 91.9425 139.575C91.9012 140.126 91.7513 140.662 91.5013 141.154C90.9339 142.266 89.9512 143.108 88.7673 143.497C88.2775 143.661 87.7646 143.744 87.2484 143.745Z" fill="white"/>
<path d="M95.0393 146.129C95.5087 147.05 95.5943 148.12 95.2772 149.104C94.9601 150.088 94.2662 150.905 93.3483 151.376C92.4303 151.847 91.3635 151.933 90.3824 151.615C89.4014 151.297 88.5865 150.601 88.117 149.68L88.1136 149.673C87.1378 147.755 88.4861 146.564 90.3986 145.586C92.3111 144.607 94.0636 144.211 95.0393 146.129Z" fill="white"/>
<path d="M157.463 162.445H2.73424C2.62653 162.445 2.52323 162.402 2.44707 162.326C2.37091 162.25 2.32812 162.146 2.32812 162.038C2.32812 161.93 2.37091 161.826 2.44707 161.75C2.52323 161.674 2.62653 161.631 2.73424 161.631H157.463C157.571 161.631 157.674 161.674 157.751 161.75C157.827 161.826 157.87 161.93 157.87 162.038C157.87 162.146 157.827 162.25 157.751 162.326C157.674 162.402 157.571 162.445 157.463 162.445Z" fill="#3F3D56"/>
<path d="M76.6131 167.969C78.2421 167.547 78.4779 162.986 77.1396 157.781C75.8014 152.576 73.3959 148.699 71.7669 149.12C70.1379 149.541 69.9022 154.102 71.2405 159.307C72.5787 164.512 74.9841 168.39 76.6131 167.969Z" fill="#2F2E41"/>
<path d="M105.982 123.83H99.3273C99.2639 123.83 99.202 123.811 99.1497 123.775C99.0974 123.739 99.0573 123.688 99.0345 123.629C99.0116 123.569 99.0073 123.504 99.0219 123.442C99.0366 123.381 99.0696 123.325 99.1166 123.282L105.168 117.785H99.5768C99.4936 117.785 99.4138 117.752 99.3549 117.693C99.2961 117.634 99.263 117.554 99.263 117.47C99.263 117.387 99.2961 117.307 99.3549 117.247C99.4138 117.188 99.4936 117.155 99.5768 117.155H105.982C106.045 117.155 106.107 117.175 106.159 117.211C106.212 117.246 106.252 117.298 106.275 117.357C106.297 117.416 106.302 117.481 106.287 117.543C106.272 117.605 106.239 117.661 106.192 117.703L100.141 123.201H105.982C106.065 123.201 106.145 123.234 106.204 123.293C106.262 123.352 106.296 123.432 106.296 123.515C106.296 123.599 106.262 123.679 106.204 123.738C106.145 123.797 106.065 123.83 105.982 123.83Z" fill="#CBCBCB"/>
<path d="M114.455 114.072H107.801C107.737 114.072 107.675 114.053 107.623 114.017C107.571 113.981 107.531 113.93 107.508 113.87C107.485 113.811 107.481 113.746 107.495 113.684C107.51 113.622 107.543 113.567 107.59 113.524L113.641 108.027H108.05C107.967 108.027 107.887 107.994 107.828 107.935C107.769 107.875 107.736 107.795 107.736 107.712C107.736 107.628 107.769 107.548 107.828 107.489C107.887 107.43 107.967 107.397 108.05 107.397H114.455C114.518 107.397 114.58 107.416 114.633 107.452C114.685 107.488 114.725 107.539 114.748 107.599C114.771 107.658 114.775 107.723 114.76 107.785C114.746 107.847 114.713 107.903 114.666 107.945L108.615 113.442H114.455C114.538 113.442 114.618 113.476 114.677 113.535C114.736 113.594 114.769 113.674 114.769 113.757C114.769 113.841 114.736 113.921 114.677 113.98C114.618 114.039 114.538 114.072 114.455 114.072Z" fill="#CBCBCB"/>
<path d="M110.689 103.369H104.035C103.971 103.369 103.909 103.35 103.857 103.314C103.805 103.278 103.765 103.227 103.742 103.168C103.719 103.109 103.715 103.044 103.729 102.982C103.744 102.92 103.777 102.864 103.824 102.821L109.875 97.3242H104.284C104.201 97.3242 104.121 97.2911 104.062 97.232C104.003 97.173 103.97 97.0929 103.97 97.0094C103.97 96.926 104.003 96.8459 104.062 96.7868C104.121 96.7278 104.201 96.6947 104.284 96.6947H110.689C110.753 96.6947 110.814 96.7139 110.867 96.7499C110.919 96.7859 110.959 96.8369 110.982 96.8962C111.005 96.9555 111.009 97.0204 110.994 97.0822C110.98 97.1441 110.947 97.2001 110.9 97.2428L104.849 102.74H110.689C110.772 102.74 110.852 102.773 110.911 102.832C110.97 102.891 111.003 102.971 111.003 103.055C111.003 103.138 110.97 103.218 110.911 103.277C110.852 103.336 110.772 103.369 110.689 103.369Z" fill="#CBCBCB"/>
<path d="M156.808 74.2552L162.004 70.0865C157.968 69.6398 156.309 71.848 155.63 73.5959C152.477 72.2824 149.044 74.0038 149.044 74.0038L159.44 77.7896C158.916 76.3844 158.003 75.1584 156.808 74.2552Z" fill="#3F3D56"/>
<path d="M7.76452 6.22702L12.9607 2.05838C8.924 1.61167 7.26541 3.81989 6.58662 5.56773C3.43302 4.25423 -6.10352e-05 5.97565 -6.10352e-05 5.97565L10.3965 9.76149C9.872 8.35631 8.95899 7.13024 7.76452 6.22702Z" fill="#3F3D56"/>
<path d="M169.804 20.4844L175 16.3158C170.963 15.8691 169.305 18.0773 168.626 19.8251C165.472 18.5116 162.039 20.233 162.039 20.233L172.436 24.0189C171.911 22.6137 170.998 21.3876 169.804 20.4844Z" fill="#3F3D56"/>
</g>
<defs>
<clipPath id="clip0_9701_66066">
<rect width="175" height="168" fill="white"/>
</clipPath>
</defs>
</svg>
