<svg width="197" height="168" viewBox="0 0 197 168" fill="none" xmlns="http://www.w3.org/2000/svg">
<g clip-path="url(#clip0_9706_66113)">
<path d="M14.7929 154.172C15.9281 154.569 17.1469 154.668 18.3319 154.46C19.5169 154.253 20.6282 153.746 21.5587 152.988C23.9284 151.011 24.6715 147.755 25.2759 144.74L27.064 135.821L23.3205 138.383C20.6282 140.225 17.8754 142.126 16.0115 144.794C14.1475 147.463 13.3344 151.106 14.8315 153.993" fill="#E6E6E6"/>
<path d="M15.371 165.591C14.8999 162.18 14.4151 158.724 14.7464 155.276C15.04 152.214 15.9801 149.223 17.894 146.77C18.9099 145.471 20.1461 144.358 21.5469 143.48C21.9121 143.251 22.2484 143.826 21.8847 144.055C19.4608 145.577 17.5859 147.825 16.5305 150.475C15.3648 153.421 15.1776 156.633 15.3784 159.763C15.4998 161.655 15.7577 163.536 16.0167 165.414C16.0371 165.499 16.0244 165.588 15.981 165.664C15.9376 165.74 15.8668 165.797 15.7829 165.823C15.6973 165.846 15.6061 165.834 15.5291 165.791C15.452 165.747 15.3953 165.675 15.3713 165.591L15.371 165.591Z" fill="#F2F2F2"/>
<path d="M18.7625 160.117C19.2492 160.853 19.9184 161.451 20.7055 161.855C21.4927 162.259 22.3712 162.454 23.2564 162.423C25.532 162.315 27.4283 160.738 29.1352 159.239L34.1849 154.809L30.843 154.65C28.4396 154.535 25.9742 154.428 23.685 155.165C21.3959 155.903 19.2847 157.675 18.8662 160.029" fill="#E6E6E6"/>
<path d="M14.0391 167.552C16.3076 163.563 18.9385 159.13 23.64 157.713C24.9471 157.321 26.3177 157.18 27.678 157.299C28.1067 157.336 27.9997 157.992 27.5718 157.956C25.2916 157.768 23.0158 158.366 21.1275 159.65C19.3104 160.879 17.8955 162.588 16.6982 164.4C15.9647 165.51 15.3077 166.667 14.6506 167.823C14.4407 168.192 13.8268 167.926 14.0391 167.552Z" fill="#F2F2F2"/>
<path d="M195.547 118.31H70.4856C70.1002 118.31 69.7308 118.157 69.4583 117.887C69.1858 117.616 69.0325 117.249 69.032 116.866V1.44457C69.0325 1.0616 69.1858 0.694457 69.4583 0.423657C69.7308 0.152857 70.1002 0.000500637 70.4856 0H195.547C195.932 0.000500637 196.301 0.152857 196.574 0.423657C196.846 0.694457 197 1.0616 197 1.44457V116.865C197 117.248 196.846 117.616 196.574 117.886C196.301 118.157 195.932 118.31 195.547 118.31V118.31Z" fill="white"/>
<path d="M195.547 118.31H70.4856C70.1002 118.31 69.7308 118.157 69.4583 117.887C69.1858 117.616 69.0325 117.249 69.032 116.866V1.44457C69.0325 1.0616 69.1858 0.694457 69.4583 0.423657C69.7308 0.152857 70.1002 0.000500637 70.4856 0H195.547C195.932 0.000500637 196.301 0.152857 196.574 0.423657C196.846 0.694457 197 1.0616 197 1.44457V116.865C197 117.248 196.846 117.616 196.574 117.886C196.301 118.157 195.932 118.31 195.547 118.31V118.31ZM70.4856 0.576689C70.2546 0.577187 70.0333 0.668587 69.87 0.830881C69.7066 0.993176 69.6147 1.21315 69.6142 1.44267V116.865C69.6147 117.095 69.7066 117.315 69.87 117.477C70.0333 117.64 70.2546 117.731 70.4856 117.731H195.547C195.777 117.731 195.999 117.64 196.162 117.477C196.326 117.315 196.417 117.095 196.418 116.865V1.44457C196.417 1.21505 196.325 0.995072 196.162 0.832777C195.999 0.670482 195.777 0.579083 195.547 0.578585L70.4856 0.576689Z" fill="#CACACA"/>
<path d="M129.579 29.9926C129.318 29.993 129.067 30.0965 128.882 30.2804C128.698 30.4643 128.594 30.7135 128.594 30.9733C128.594 31.2331 128.698 31.4823 128.882 31.6662C129.067 31.8501 129.318 31.9536 129.579 31.954H183.729C183.99 31.9536 184.241 31.8501 184.425 31.6662C184.61 31.4823 184.714 31.2331 184.714 30.9733C184.714 30.7135 184.61 30.4643 184.425 30.2804C184.241 30.0965 183.99 29.993 183.729 29.9926H129.579Z" fill="#E4E4E4"/>
<path d="M129.579 35.8774C129.318 35.8781 129.067 35.9817 128.883 36.1655C128.698 36.3494 128.595 36.5985 128.595 36.8582C128.595 37.1179 128.698 37.367 128.883 37.5508C129.067 37.7347 129.318 37.8383 129.579 37.8389H157.224C157.485 37.8383 157.735 37.7347 157.92 37.5508C158.104 37.367 158.208 37.1179 158.208 36.8582C158.208 36.5985 158.104 36.3494 157.92 36.1655C157.735 35.9817 157.485 35.8781 157.224 35.8774H129.579Z" fill="#E4E4E4"/>
<path d="M82.2505 67.5243C81.9892 67.5249 81.7388 67.6285 81.5543 67.8124C81.3697 67.9962 81.2661 68.2453 81.2661 68.505C81.2661 68.7647 81.3697 69.0138 81.5543 69.1977C81.7388 69.3815 81.9892 69.4851 82.2505 69.4857H183.781C184.043 69.4851 184.293 69.3815 184.478 69.1977C184.662 69.0138 184.766 68.7647 184.766 68.505C184.766 68.2453 184.662 67.9962 184.478 67.8124C184.293 67.6285 184.043 67.5249 183.781 67.5243H82.2505Z" fill="#E4E4E4"/>
<path d="M82.2505 73.4092C81.9892 73.4098 81.7388 73.5134 81.5543 73.6973C81.3697 73.8811 81.2661 74.1302 81.2661 74.3899C81.2661 74.6496 81.3697 74.8987 81.5543 75.0826C81.7388 75.2664 81.9892 75.37 82.2505 75.3706H157.276C157.537 75.37 157.788 75.2664 157.972 75.0826C158.157 74.8987 158.261 74.6496 158.261 74.3899C158.261 74.1302 158.157 73.8811 157.972 73.6973C157.788 73.5134 157.537 73.4098 157.276 73.4092H82.2505Z" fill="#E4E4E4"/>
<path d="M82.2505 79.1609C81.9892 79.1615 81.7388 79.2651 81.5543 79.449C81.3697 79.6329 81.2661 79.8819 81.2661 80.1416C81.2661 80.4013 81.3697 80.6504 81.5543 80.8343C81.7388 81.0181 81.9892 81.1217 82.2505 81.1224H183.781C184.043 81.1217 184.293 81.0181 184.478 80.8343C184.662 80.6504 184.766 80.4013 184.766 80.1416C184.766 79.8819 184.662 79.6329 184.478 79.449C184.293 79.2651 184.043 79.1615 183.781 79.1609H82.2505Z" fill="#E4E4E4"/>
<path d="M82.2505 85.0458C81.9892 85.0464 81.7388 85.15 81.5543 85.3339C81.3697 85.5177 81.2661 85.7668 81.2661 86.0265C81.2661 86.2862 81.3697 86.5353 81.5543 86.7192C81.7388 86.903 81.9892 87.0066 82.2505 87.0072H157.276C157.537 87.0066 157.788 86.903 157.972 86.7192C158.157 86.5353 158.261 86.2862 158.261 86.0265C158.261 85.7668 158.157 85.5177 157.972 85.3339C157.788 85.15 157.537 85.0464 157.276 85.0458H82.2505Z" fill="#E4E4E4"/>
<path d="M82.2505 90.9508C81.9892 90.9514 81.7388 91.055 81.5543 91.2388C81.3697 91.4227 81.2661 91.6718 81.2661 91.9315C81.2661 92.1912 81.3697 92.4403 81.5543 92.6241C81.7388 92.808 81.9892 92.9116 82.2505 92.9122H183.781C184.043 92.9116 184.293 92.808 184.478 92.6241C184.662 92.4403 184.766 92.1912 184.766 91.9315C184.766 91.6718 184.662 91.4227 184.478 91.2388C184.293 91.055 184.043 90.9514 183.781 90.9508H82.2505Z" fill="#E4E4E4"/>
<path d="M82.2505 96.8356C81.9892 96.8363 81.7388 96.9399 81.5543 97.1237C81.3697 97.3076 81.2661 97.5567 81.2661 97.8164C81.2661 98.0761 81.3697 98.3252 81.5543 98.509C81.7388 98.6929 81.9892 98.7965 82.2505 98.7971H157.276C157.537 98.7965 157.788 98.6929 157.972 98.509C158.157 98.3252 158.261 98.0761 158.261 97.8164C158.261 97.5567 158.157 97.3076 157.972 97.1237C157.788 96.9399 157.537 96.8363 157.276 96.8356H82.2505Z" fill="#E4E4E4"/>
<path d="M98.3321 48.006C95.5279 48.006 92.7867 47.1796 90.4551 45.6314C88.1235 44.0832 86.3062 41.8825 85.2331 39.3079C84.16 36.7332 83.8792 33.9001 84.4262 31.1669C84.9733 28.4336 86.3236 25.923 88.3064 23.9524C90.2893 21.9818 92.8156 20.6398 95.5659 20.0961C98.3162 19.5524 101.167 19.8315 103.758 20.8979C106.348 21.9644 108.563 23.7704 110.121 26.0875C111.678 28.4047 112.51 31.1289 112.51 33.9157C112.506 37.6513 111.011 41.2328 108.353 43.8743C105.695 46.5158 102.091 48.0017 98.3321 48.006Z" fill="#019E07"/>
<path d="M55.2939 101.282C55.2694 100.768 55.1317 100.265 54.8906 99.8096C54.6494 99.3539 54.3106 98.9563 53.8981 98.6448C53.4856 98.3333 53.0094 98.1154 52.503 98.0066C51.9967 97.8978 51.4724 97.9007 50.9673 98.015L46.2809 91.4514L41.5728 93.3089L48.3219 102.486C48.5714 103.316 49.1188 104.027 49.8604 104.483C50.602 104.94 51.4863 105.11 52.3457 104.961C53.205 104.813 53.9798 104.357 54.5232 103.679C55.0666 103.001 55.3408 102.148 55.2939 101.282H55.2939Z" fill="#A0616A"/>
<path d="M46.1603 100.796L31.98 82.5137L37.2932 65.9184C37.6826 61.7461 40.3097 60.5811 40.4215 60.5335L40.592 60.4608L45.2155 72.7142L41.8208 81.7107L50.1531 95.6377L46.1603 100.796Z" fill="#3F3D56"/>
<path d="M95.4063 44.4379C94.8922 44.5019 94.3985 44.6772 93.96 44.9514C93.5215 45.2256 93.1488 45.592 92.8682 46.0248C92.5876 46.4576 92.4059 46.9463 92.3358 47.4564C92.2658 47.9666 92.3092 48.4858 92.4629 48.9775L86.2406 54.1284L88.4681 58.6497L97.1524 51.253C97.9664 50.9416 98.6372 50.3442 99.0377 49.5741C99.4382 48.804 99.5405 47.9147 99.3253 47.0746C99.11 46.2346 98.5922 45.5022 97.8699 45.0162C97.1476 44.5303 96.271 44.3245 95.4063 44.4379Z" fill="#A0616A"/>
<path d="M95.6244 53.5254L78.3797 68.9893L61.3202 65.0078C57.1044 64.9446 55.7325 62.4317 55.6761 62.3246L55.59 62.1613L67.5253 56.6328L76.8133 59.3008L90.1409 49.9681L95.6244 53.5254Z" fill="#3F3D56"/>
<path d="M65.754 163.458L70.3874 163.458L72.5914 145.697L65.7532 145.697L65.754 163.458Z" fill="#A0616A"/>
<path d="M79.323 167.733L64.7612 167.734L64.7609 162.142L75.2374 162.142C76.3209 162.142 77.36 162.57 78.1262 163.331C78.8924 164.092 79.3229 165.125 79.3229 166.202L79.323 167.733L79.323 167.733Z" fill="#2F2E41"/>
<path d="M47.2353 163.458L51.8687 163.458L54.0729 145.697L47.2347 145.697L47.2353 163.458Z" fill="#A0616A"/>
<path d="M60.8046 167.733L46.2428 167.734L46.2425 162.142L56.719 162.142C57.2555 162.142 57.7867 162.247 58.2824 162.451C58.778 162.655 59.2284 162.954 59.6078 163.331C59.9872 163.708 60.2881 164.156 60.4934 164.648C60.6988 165.141 60.8045 165.669 60.8045 166.202L60.8046 167.733Z" fill="#2F2E41"/>
<path d="M45.5875 98.6295L45.9654 124.921L46.3436 159.474L54.6577 158.723L58.8151 111.024L64.1061 158.723H72.6897L73.5543 110.648L70.5309 100.132L45.5875 98.6295Z" fill="#2F2E41"/>
<path d="M61.8609 102.16C52.8143 102.161 44.4871 98.0917 44.3747 98.0358L44.2813 97.9894L43.5221 79.883C43.302 79.2431 38.967 66.6177 38.2328 62.6048C37.4889 58.5391 48.2699 54.9709 49.579 54.5536L49.8761 51.2829L61.9575 49.9891L63.4888 54.1741L67.823 55.7893C68.3144 55.9725 68.7211 56.3285 68.966 56.7899C69.2109 57.2512 69.277 57.7857 69.1518 58.2923L66.7428 68.0278L72.6262 100.238L71.3596 100.292C68.3235 101.655 65.0467 102.16 61.8609 102.16Z" fill="#3F3D56"/>
<path d="M60.5621 46.8582C64.7775 44.5681 66.3267 39.3156 64.0224 35.1263C61.718 30.937 56.4327 29.3974 52.2173 31.6875C48.002 33.9776 46.4528 39.2301 48.7571 43.4194C51.0615 47.6087 56.3468 49.1483 60.5621 46.8582Z" fill="#A0616A"/>
<path d="M49.3444 47.6417C51.0022 49.3966 54.0808 48.4545 54.2969 46.0571C54.3138 45.8709 54.3126 45.6836 54.2932 45.4977C54.1817 44.4357 53.5643 43.4716 53.7122 42.3503C53.7456 42.0712 53.8503 41.8052 54.0161 41.5776C55.3371 39.8196 58.4381 42.3639 59.6849 40.7724C60.4493 39.7966 59.5507 38.2602 60.1374 37.1695C60.9116 35.73 63.205 36.4401 64.6432 35.6517C66.2433 34.7746 66.1476 32.3347 65.0943 30.8506C63.8097 29.0408 61.5574 28.075 59.3332 27.9358C57.109 27.7967 54.9001 28.3942 52.8236 29.1984C50.4643 30.1122 48.1247 31.375 46.6728 33.4367C44.9071 35.944 44.7372 39.3148 45.6202 42.2465C46.1574 44.03 47.9907 46.2086 49.3444 47.6417Z" fill="#2F2E41"/>
<path d="M110.531 167.956H0.289349C0.212609 167.956 0.139007 167.926 0.0847437 167.872C0.0304803 167.818 0 167.745 0 167.668C0 167.592 0.0304803 167.519 0.0847437 167.465C0.139007 167.411 0.212609 167.381 0.289349 167.381H110.531C110.608 167.381 110.682 167.411 110.736 167.465C110.79 167.519 110.821 167.592 110.821 167.668C110.821 167.745 110.79 167.818 110.736 167.872C110.682 167.926 110.608 167.956 110.531 167.956Z" fill="#CACACA"/>
<path d="M97.5133 39.2376C97.2576 39.2379 97.0114 39.1417 96.8243 38.9686L92.1492 34.6531C91.9527 34.4714 91.8369 34.2195 91.8271 33.953C91.8173 33.6864 91.9144 33.4269 92.0971 33.2314C92.2798 33.036 92.533 32.9206 92.8012 32.9106C93.0695 32.9007 93.3307 32.9969 93.5275 33.1782L97.4874 36.8336L105.322 29.0477C105.416 28.9537 105.528 28.879 105.651 28.8279C105.774 28.7769 105.906 28.7505 106.039 28.7502C106.172 28.75 106.304 28.7759 106.428 28.8265C106.551 28.8771 106.663 28.9514 106.757 29.0451C106.851 29.1388 106.926 29.25 106.977 29.3725C107.028 29.495 107.054 29.6262 107.054 29.7587C107.053 29.8912 107.027 30.0224 106.975 30.1446C106.924 30.2669 106.849 30.3778 106.754 30.4712L98.2296 38.9429C98.1356 39.0364 98.0239 39.1106 97.901 39.1612C97.7781 39.2118 97.6463 39.2377 97.5133 39.2376Z" fill="white"/>
</g>
<defs>
<clipPath id="clip0_9706_66113">
<rect width="197" height="168" fill="white"/>
</clipPath>
</defs>
</svg>
